<svg xmlns="http://www.w3.org/2000/svg" viewBox="0 0 1544 500" width="1544" height="500">
<rect width="1544" height="500" fill="#0f1b2d"/>
<circle cx="1330" cy="70" r="360" fill="#1d3350" opacity="0.5"/>
<circle cx="120" cy="470" r="300" fill="#13304c" opacity="0.45"/>
<text x="96" y="172" font-family="Helvetica, Arial, sans-serif" font-size="26" font-weight="500" fill="#93c5fd">dhanendranrajagopal.me</text>
<text x="92" y="262" font-family="Helvetica, Arial, sans-serif" font-size="70" font-weight="bold" fill="#ffffff">QR Code Creator</text>
<rect x="96" y="292" width="120" height="6" rx="3" fill="#3b82f6"/>
<text x="96" y="356" font-family="Helvetica, Arial, sans-serif" font-size="29" fill="#cbd5e1">Create QR codes locally — colours, logo, PNG and SVG</text>
<rect x="1150" y="110" width="300" height="300" rx="56" fill="#3b82f6"/>
<g transform="translate(1300,260) scale(5)"><g stroke="#fff" stroke-width="3" stroke-linejoin="round" fill="none"><rect x="-20" y="-20" width="13" height="13" rx="2"/><rect x="7" y="-20" width="13" height="13" rx="2"/><rect x="-20" y="7" width="13" height="13" rx="2"/></g><g fill="#fff"><rect x="-16" y="-16" width="5" height="5"/><rect x="11" y="-16" width="5" height="5"/><rect x="-16" y="11" width="5" height="5"/><rect x="8" y="8" width="5" height="5"/><rect x="14" y="14" width="4" height="4"/></g></g>
</svg>
